<svg width="40" height="40" viewBox="0 0 40 40" fill="none" xmlns="http://www.w3.org/2000/svg">
<g clip-path="url(#clip0_113_119)">
<path d="M34.6252 24.3907C34.3064 24.204 33.8983 24.3107 33.7129 24.6287L26.0685 37.6666C25.5163 38.6222 24.2914 38.9517 23.3651 38.4169L21.8759 37.4519C21.5666 37.2511 21.1537 37.3392 20.9536 37.6486C20.7529 37.9574 20.8416 38.3708 21.1503 38.5709L22.6688 39.5538C23.1737 39.8465 23.747 40.0004 24.3306 40C25.4836 40 26.6053 39.4032 27.2208 38.3375L34.8624 25.3028C35.0486 24.9855 34.9426 24.5767 34.6252 24.3907ZM36.6424 0H25.9726C23.9093 0 22.3722 0.656838 20.8331 2.19597C20.7711 2.25785 20.7219 2.33134 20.6884 2.41224C20.6548 2.49314 20.6375 2.57986 20.6375 2.66744C20.6375 2.75502 20.6548 2.84174 20.6884 2.92264C20.7219 3.00354 20.7711 3.07703 20.8331 3.13891C20.8949 3.20091 20.9684 3.2501 21.0493 3.28366C21.1302 3.31722 21.2169 3.33449 21.3045 3.33449C21.3921 3.33449 21.4788 3.31722 21.5597 3.28366C21.6406 3.2501 21.7141 3.20091 21.776 3.13891C23.0751 1.83985 24.2521 1.33368 25.9726 1.33368H36.6424C37.7454 1.33368 38.643 2.2313 38.643 3.33428V14.0042C38.643 15.7254 38.1369 16.9017 36.8372 18.2008L17.0325 38.0335C16.2763 38.7884 14.9586 38.789 14.2037 38.0335L1.94331 25.7731C1.56523 25.395 1.35712 24.8928 1.35712 24.358C1.35712 23.8238 1.56515 23.3216 1.94261 22.9442L19.8427 5.06949C20.1181 5.13951 20.3942 5.20954 20.6803 5.2862C23.3931 6.01306 25.5338 6.76399 27.1296 7.43419C26.8155 8.01569 26.6394 8.66722 26.6394 9.33609C26.6394 11.5428 28.4339 13.3373 30.6406 13.3373C32.8473 13.3373 34.6418 11.5428 34.6418 9.33609C34.6418 7.12941 32.8473 5.33489 30.6406 5.33489C30.2718 5.33489 29.9738 5.63365 29.9738 6.00173C29.9738 6.36981 30.2718 6.66857 30.6406 6.66857C32.1118 6.66857 33.3081 7.86494 33.3081 9.33601C33.3081 10.8072 32.1117 12.0035 30.6406 12.0035C29.1695 12.0035 27.9732 10.8071 27.9732 9.33601C27.9737 8.85835 28.1027 8.38961 28.3466 7.97896C29.5017 8.53179 30.2238 8.99794 30.5093 9.29537C30.3873 9.33007 30.1985 9.36876 29.9138 9.39337C29.5471 9.42604 29.2757 9.7495 29.3083 10.1162C29.3391 10.463 29.6298 10.7251 29.9719 10.7251C29.9912 10.7251 30.0112 10.7238 30.0312 10.7224C30.4413 10.6858 31.6891 10.5758 31.9291 9.68143C32.586 7.22803 22.9611 4.51651 21.0251 3.99769C18.0636 3.20409 15.2194 2.66127 13.0154 2.46926C10.3072 2.23255 8.98816 2.54061 8.74012 3.46753C8.62141 3.91235 8.30468 5.09333 13.7116 7.2253C14.0538 7.36065 14.4418 7.19263 14.5766 6.84987C14.7113 6.50711 14.5432 6.11965 14.2004 5.98493C11.5883 4.95462 10.506 4.1997 10.1592 3.84428C10.9815 3.60288 13.7937 3.6729 18.3224 4.70251L1.00037 22.0006C0.370182 22.6308 0.0234375 23.4677 0.0234375 24.358C0.0234375 25.2489 0.370182 26.0864 1.00037 26.716L13.2607 38.9763C13.8896 39.6058 14.7272 39.9526 15.6174 39.9526C16.5084 39.9526 17.3453 39.6059 17.9755 38.9757L37.7807 19.1437C39.3205 17.6046 39.9767 16.0675 39.9767 14.0042V3.33436C39.9768 1.49576 38.481 0 36.6424 0Z" fill="#2D2D43"/>
<path d="M21.8346 17.534C21.7727 17.472 21.6992 17.4228 21.6183 17.3892C21.5374 17.3557 21.4507 17.3384 21.3631 17.3384C21.2755 17.3384 21.1888 17.3557 21.1079 17.3892C21.027 17.4228 20.9535 17.472 20.8916 17.534L20.5315 17.8941C20.004 17.5447 19.3745 17.3386 18.6956 17.3386C16.8571 17.3386 15.3613 18.8343 15.3613 20.6729C15.3613 21.6666 15.7714 22.4522 16.1288 23.0263C16.4623 23.5618 16.695 24.3247 16.695 24.6742C16.695 25.7771 15.7974 26.6748 14.6944 26.6748C13.5914 26.6748 12.6938 25.7771 12.6938 24.6742C12.6938 24.2693 12.8145 23.8792 13.0426 23.5458C13.2506 23.2424 13.1726 22.827 12.8692 22.6189C12.5651 22.4115 12.1503 22.4889 11.9423 22.7923C11.5622 23.3462 11.3591 24.0025 11.3601 24.6742C11.3601 25.3531 11.5661 25.9826 11.9156 26.5101L11.5554 26.8702C11.4934 26.9321 11.4443 27.0056 11.4107 27.0865C11.3771 27.1674 11.3599 27.2541 11.3599 27.3417C11.3599 27.4293 11.3771 27.516 11.4107 27.5969C11.4443 27.6778 11.4934 27.7513 11.5554 27.8131C11.6173 27.8751 11.6908 27.9243 11.7717 27.9579C11.8526 27.9914 11.9393 28.0086 12.0269 28.0085C12.1145 28.0086 12.2012 27.9914 12.2821 27.9579C12.363 27.9243 12.4365 27.8752 12.4984 27.8131L12.8585 27.453C13.386 27.8024 14.0155 28.0085 14.6944 28.0085C16.5329 28.0085 18.0287 26.5128 18.0287 24.6742C18.0287 24.0247 17.706 23.035 17.2611 22.3208C16.8644 21.684 16.695 21.1912 16.695 20.6729C16.695 19.57 17.5926 18.6723 18.6956 18.6723C19.2304 18.6723 19.7138 18.8858 20.0726 19.2292C20.0839 19.2412 20.0879 19.2571 20.0993 19.2692C20.1113 19.2805 20.1272 19.2845 20.1393 19.2958C20.4827 19.6546 20.6961 20.1381 20.6961 20.6729C20.6961 21.2076 20.4873 21.7112 20.1086 22.0899C19.8478 22.35 19.8478 22.7722 20.1079 23.0329C20.3672 23.2937 20.7901 23.293 21.0508 23.0336C21.6817 22.4027 22.0298 21.5645 22.0298 20.6729C22.0298 19.994 21.8237 19.3645 21.4743 18.837L21.8344 18.4769C21.8964 18.4151 21.9456 18.3416 21.9792 18.2607C22.0128 18.1798 22.0301 18.0931 22.0301 18.0055C22.0301 17.9179 22.0129 17.8311 21.9793 17.7502C21.9457 17.6693 21.8966 17.5958 21.8346 17.534Z" fill="#2D2D43"/>
</g>
<defs>
<clipPath id="clip0_113_119">
<rect width="40" height="40" fill="white"/>
</clipPath>
</defs>
</svg>
