<svg width="40" height="40" viewBox="0 0 40 40" fill="none" xmlns="http://www.w3.org/2000/svg">
<g clip-path="url(#clip0_112_88)">
<path d="M23.571 5.88524C23.1045 5.41806 22.4852 5.16129 21.8246 5.16129C20.4631 5.16129 19.3548 6.26887 19.3548 7.63169C19.3548 8.29105 19.6116 8.91097 20.0781 9.37815L20.3781 9.67742L2.05927 27.9961C0.731452 29.3239 0 31.0897 0 32.9685C0 36.8451 3.15492 40 7.03153 40C8.90976 40 10.6754 39.2685 12.0039 37.9407L30.3226 19.6219L30.6225 19.9212C31.089 20.3884 31.7084 20.6452 32.3689 20.6452C33.7305 20.6452 34.8387 19.5376 34.8387 18.1748C34.8387 17.5154 34.5819 16.8955 34.1154 16.4283L23.571 5.88524ZM11.0915 37.0284C10.0079 38.1124 8.56508 38.7097 7.03153 38.7097C3.86589 38.7097 1.29032 36.134 1.29032 32.9685C1.29032 31.4349 1.88758 29.9927 2.97161 28.9085L6.07363 25.8064H22.3135L11.0915 37.0284ZM32.3689 19.3548C32.0562 19.3539 31.7564 19.2296 31.5348 19.0089L30.3226 17.7975L23.6038 24.5161H7.36395L9.67742 22.2026L11.1568 23.6819L12.069 22.7697L10.5897 21.2903L11.6129 20.2671L14.3826 23.0368L15.2948 22.1245L12.5252 19.3548L13.5484 18.3316L15.0277 19.811L15.94 18.8987L14.4606 17.4194L15.4839 16.3961L18.2535 19.1658L19.1658 18.2535L16.3961 15.4839L17.4194 14.4606L18.8987 15.94L19.811 15.0277L18.3316 13.5484L19.3548 12.5252L22.1245 15.2948L23.0368 14.3826L20.2671 11.6129L21.2903 10.5903L27.931 17.2303L28.8432 16.3181L20.9904 8.46589C20.8806 8.35651 20.7936 8.22649 20.7344 8.08331C20.6751 7.94014 20.6448 7.78665 20.6452 7.63169C20.6452 6.98056 21.1741 6.45161 21.8246 6.45161C22.1374 6.45253 22.4372 6.57686 22.6588 6.79758L33.2031 17.3406C33.3129 17.4499 33.3999 17.58 33.4592 17.7231C33.5184 17.8663 33.5488 18.0198 33.5484 18.1748C33.5484 18.8259 33.0194 19.3548 32.3689 19.3548ZM37.4194 7.09677C35.9961 7.09677 34.8387 8.25419 34.8387 9.67742C34.8387 11.1006 35.9961 12.2581 37.4194 12.2581C38.8426 12.2581 40 11.1006 40 9.67742C40 8.25419 38.8426 7.09677 37.4194 7.09677ZM37.4194 10.9677C36.7077 10.9677 36.129 10.389 36.129 9.67742C36.129 8.96581 36.7077 8.3871 37.4194 8.3871C38.131 8.3871 38.7097 8.96581 38.7097 9.67742C38.7097 10.389 38.131 10.9677 37.4194 10.9677ZM27.7419 5.80645C28.8089 5.80645 29.6774 4.9379 29.6774 3.87097C29.6774 2.80403 28.8089 1.93548 27.7419 1.93548C26.675 1.93548 25.8064 2.80403 25.8064 3.87097C25.8064 4.9379 26.675 5.80645 27.7419 5.80645ZM27.7419 3.22581C28.0979 3.22581 28.3871 3.51565 28.3871 3.87097C28.3871 4.22629 28.0979 4.51613 27.7419 4.51613C27.386 4.51613 27.0968 4.22629 27.0968 3.87097C27.0968 3.51565 27.386 3.22581 27.7419 3.22581ZM35.4839 3.87097C36.5508 3.87097 37.4194 3.00242 37.4194 1.93548C37.4194 0.868548 36.5508 0 35.4839 0C34.4169 0 33.5484 0.868548 33.5484 1.93548C33.5484 3.00242 34.4169 3.87097 35.4839 3.87097ZM35.4839 1.29032C35.8398 1.29032 36.129 1.58016 36.129 1.93548C36.129 2.29081 35.8398 2.58065 35.4839 2.58065C35.1279 2.58065 34.8387 2.29081 34.8387 1.93548C34.8387 1.58016 35.1279 1.29032 35.4839 1.29032Z" fill="#2D2D43"/>
<path d="M8.38708 29.6774C8.38708 28.6105 7.51853 27.7419 6.4516 27.7419C5.38466 27.7419 4.51611 28.6105 4.51611 29.6774C4.51611 30.7444 5.38466 31.6129 6.4516 31.6129C7.51853 31.6129 8.38708 30.7444 8.38708 29.6774ZM5.80644 29.6774C5.80644 29.3221 6.09563 29.0323 6.4516 29.0323C6.80756 29.0323 7.09676 29.3221 7.09676 29.6774C7.09676 30.0327 6.80756 30.3226 6.4516 30.3226C6.09563 30.3226 5.80644 30.0327 5.80644 29.6774ZM13.5484 27.7419C12.4814 27.7419 11.6129 28.6105 11.6129 29.6774C11.6129 30.7444 12.4814 31.6129 13.5484 31.6129C14.6153 31.6129 15.4839 30.7444 15.4839 29.6774C15.4839 28.6105 14.6153 27.7419 13.5484 27.7419ZM13.5484 30.3226C13.1924 30.3226 12.9032 30.0327 12.9032 29.6774C12.9032 29.3221 13.1924 29.0323 13.5484 29.0323C13.9043 29.0323 14.1935 29.3221 14.1935 29.6774C14.1935 30.0327 13.9043 30.3226 13.5484 30.3226ZM7.74192 33.5484C6.67498 33.5484 5.80644 34.4169 5.80644 35.4839C5.80644 36.5508 6.67498 37.4194 7.74192 37.4194C8.80885 37.4194 9.6774 36.5508 9.6774 35.4839C9.6774 34.4169 8.80885 33.5484 7.74192 33.5484ZM7.74192 36.129C7.38595 36.129 7.09676 35.8392 7.09676 35.4839C7.09676 35.1286 7.38595 34.8387 7.74192 34.8387C8.09789 34.8387 8.38708 35.1286 8.38708 35.4839C8.38708 35.8392 8.09789 36.129 7.74192 36.129Z" fill="#2D2D43"/>
</g>
<defs>
<clipPath id="clip0_112_88">
<rect width="40" height="40" fill="white"/>
</clipPath>
</defs>
</svg>
