<svg width="40" height="40" viewBox="0 0 40 40" fill="none" xmlns="http://www.w3.org/2000/svg">
<g clip-path="url(#clip0_113_94)">
<path d="M20 7.28882C18.9046 7.28882 17.8503 7.61835 16.9512 8.24179C16.6854 8.42608 16.6182 8.79257 16.8011 9.06038C16.9841 9.32819 17.3478 9.39585 17.6136 9.21163C18.3171 8.7239 19.1422 8.46608 20 8.46608C22.3246 8.46608 24.2157 10.3714 24.2157 12.7134C24.2157 15.0553 22.3246 16.9607 20 16.9607C17.6755 16.9607 15.7844 15.0553 15.7844 12.7134C15.7844 12.0225 15.9436 11.3639 16.2576 10.7559C16.4065 10.4675 16.2953 10.1121 16.009 9.9621C15.7227 9.81218 15.3701 9.92413 15.2211 10.2126C14.8253 10.9791 14.616 11.8439 14.616 12.7134C14.616 15.7045 17.0313 18.138 20 18.138C22.9688 18.138 25.384 15.7045 25.384 12.7134C25.384 9.72226 22.9688 7.28882 20 7.28882Z" fill="#2D2D43"/>
<path d="M39.9551 39.1852L34.1892 25.227C34.1453 25.12 34.0706 25.0284 33.9746 24.9639C33.8786 24.8994 33.7656 24.8648 33.6499 24.8646H27.904C29.0216 23.3413 29.9518 21.8241 30.6783 20.3343C31.9658 17.6941 32.6186 15.1302 32.6186 12.7134C32.6185 5.7032 26.9579 0 20 0C13.0421 0 7.38146 5.7032 7.38146 12.7134C7.38146 15.1301 8.03419 17.6941 9.32169 20.3342C10.0481 21.824 10.9783 23.3413 12.096 24.8645H6.35013C6.23445 24.8647 6.12144 24.8993 6.02543 24.9638C5.92942 25.0283 5.85473 25.1199 5.81083 25.227L1.88177 34.7384C1.75779 35.0385 1.89872 35.383 2.19661 35.5079C2.27005 35.5387 2.34599 35.5533 2.42083 35.5533C2.53657 35.5531 2.64963 35.5185 2.74569 35.454C2.84175 35.3894 2.91647 35.2978 2.96036 35.1907L3.52099 33.8335H7.49802L5.43708 38.8227H1.46013L2.05755 37.3764C2.18154 37.0762 2.0406 36.7317 1.74271 36.6069C1.44466 36.4818 1.10279 36.624 0.978879 36.9241L0.0448947 39.1852C0.00791113 39.2747 -0.00656348 39.3719 0.00273934 39.4682C0.0120422 39.5646 0.0448385 39.6572 0.098254 39.738C0.151283 39.8184 0.223426 39.8844 0.308228 39.9302C0.39303 39.9759 0.487846 39.9999 0.584192 40H39.4158C39.5121 39.9999 39.6069 39.9759 39.6917 39.9301C39.7765 39.8844 39.8487 39.8184 39.9018 39.738C39.9552 39.6572 39.9879 39.5646 39.9973 39.4682C40.0066 39.3719 39.9921 39.2747 39.9551 39.1852ZM8.54989 12.7134C8.54989 6.35227 13.6864 1.17719 20 1.17719C26.3136 1.17719 31.4501 6.35234 31.4501 12.7134C31.4501 15.3808 30.5301 19.6433 26.2747 25.0752C26.2704 25.0802 26.2665 25.0856 26.2625 25.0909C26.0403 25.3741 25.8142 25.6543 25.5843 25.9313C23.2458 28.7486 20.8794 30.8059 19.9999 31.5368C19.1229 30.8084 16.7677 28.7614 14.4309 25.9495C14.1954 25.666 13.9639 25.3793 13.7365 25.0893C13.7329 25.0848 13.7295 25.0801 13.7258 25.0756C9.47044 19.6441 8.54989 15.3818 8.54989 12.7134ZM6.73974 26.0418H10.7168L9.26622 29.5534H5.28919L6.73974 26.0418ZM10.156 38.8228L13.8076 29.9831L24.1994 38.8228H10.156ZM26.0105 38.8228L13.9518 28.565C13.8818 28.5053 13.7987 28.4632 13.7093 28.4419C13.6199 28.4206 13.5267 28.4209 13.4374 28.4427C13.3479 28.4646 13.2649 28.5074 13.1951 28.5675C13.1253 28.6276 13.0706 28.7033 13.0356 28.7885L8.89052 38.8227H6.70271L8.91333 33.471C8.95031 33.3815 8.96478 33.2844 8.95548 33.188C8.94617 33.0916 8.91338 32.999 8.85997 32.9183C8.80693 32.8378 8.73477 32.7718 8.64995 32.7261C8.56514 32.6804 8.47031 32.6564 8.37396 32.6562H4.00747L4.80294 30.7305H9.65591C9.77159 30.7303 9.8846 30.6957 9.98061 30.6312C10.0766 30.5667 10.1513 30.4751 10.1952 30.368L11.9824 26.0417H12.9963C13.1735 26.2647 13.3531 26.4858 13.5349 26.7051C16.5493 30.3324 19.5175 32.6613 19.6425 32.7587C19.7446 32.8385 19.8704 32.8818 20 32.8818C20.1295 32.8818 20.2554 32.8385 20.3575 32.7587C20.4261 32.7052 21.3541 31.9767 22.6757 30.7305H29.2914C29.614 30.7305 29.8756 30.467 29.8756 30.142C29.8756 29.8169 29.614 29.5534 29.2914 29.5534H23.8797C24.6897 28.7328 25.5751 27.7761 26.4651 26.7052C26.6488 26.4841 26.8278 26.263 27.0037 26.0418H33.2602L34.7108 29.5534H31.6282C31.3055 29.5534 31.044 29.8169 31.044 30.142C31.044 30.467 31.3054 30.7305 31.6282 30.7305H35.197L35.9925 32.6563H23.9558C23.8364 32.6566 23.7199 32.6934 23.622 32.7618C23.5242 32.8302 23.4496 32.9269 23.4084 33.039C23.3667 33.1513 23.3601 33.2736 23.3895 33.3898C23.4188 33.5059 23.4828 33.6104 23.5728 33.6895L29.4426 38.8228H26.0105ZM31.2251 38.8228L25.5201 33.8336H36.4789L38.5399 38.8228H31.2251Z" fill="#2D2D43"/>
</g>
<defs>
<clipPath id="clip0_113_94">
<rect width="40" height="40" fill="white"/>
</clipPath>
</defs>
</svg>
