<svg width="40" height="40" viewBox="0 0 40 40" fill="none" xmlns="http://www.w3.org/2000/svg">
<path d="M23.8384 23.5485H9.20652C9.051 23.5485 8.90184 23.6102 8.79187 23.7202C8.6819 23.8302 8.62012 23.9793 8.62012 24.1349C8.62012 24.2904 8.6819 24.4395 8.79187 24.5495C8.90184 24.6595 9.051 24.7213 9.20652 24.7213H23.8384C23.9939 24.7213 24.1431 24.6595 24.253 24.5495C24.363 24.4395 24.4248 24.2904 24.4248 24.1349C24.4248 23.9793 24.363 23.8302 24.253 23.7202C24.1431 23.6102 23.9939 23.5485 23.8384 23.5485ZM19.2948 26.3086H9.20652C9.051 26.3086 8.90184 26.3704 8.79187 26.4804C8.6819 26.5903 8.62012 26.7395 8.62012 26.895C8.62012 27.0505 8.6819 27.1997 8.79187 27.3097C8.90184 27.4196 9.051 27.4814 9.20652 27.4814H19.2948C19.4503 27.4814 19.5995 27.4196 19.7095 27.3097C19.8194 27.1997 19.8812 27.0505 19.8812 26.895C19.8812 26.7395 19.8194 26.5903 19.7095 26.4804C19.5995 26.3704 19.4503 26.3086 19.2948 26.3086Z" fill="#2D2D43"/>
<path d="M36.3136 12.0146C36.4691 12.0146 36.6183 11.9528 36.7283 11.8428C36.8382 11.7329 36.9 11.5837 36.9 11.4282V6.1235C36.9 5.96798 36.8382 5.81882 36.7283 5.70885C36.6183 5.59888 36.4691 5.5371 36.3136 5.5371H29.6634V0.586405C29.6634 0.430881 29.6016 0.281726 29.4916 0.171754C29.3817 0.0617818 29.2325 0 29.077 0L3.68626 0C3.53073 0 3.38158 0.0617818 3.27161 0.171754C3.16164 0.281726 3.09985 0.430881 3.09985 0.586405V20.7271C3.09985 20.8827 3.16164 21.0318 3.27161 21.1418C3.38158 21.2518 3.53073 21.3136 3.68626 21.3136C3.84178 21.3136 3.99094 21.2518 4.10091 21.1418C4.21088 21.0318 4.27266 20.8827 4.27266 20.7271V1.17289H28.4906V28.2763H24.0633C23.9078 28.2763 23.7586 28.3381 23.6487 28.4481C23.5387 28.5581 23.4769 28.7072 23.4769 28.8628V33.29L4.27274 33.2901V23.0728C4.27274 22.9173 4.21096 22.7682 4.10099 22.6582C3.99102 22.5482 3.84186 22.4864 3.68634 22.4864C3.53081 22.4864 3.38166 22.5482 3.27169 22.6582C3.16171 22.7682 3.09993 22.9173 3.09993 23.0728V33.8765C3.09992 33.9535 3.11508 34.0298 3.14455 34.1009C3.17401 34.1721 3.21721 34.2367 3.27166 34.2912C3.32612 34.3456 3.39077 34.3888 3.46192 34.4183C3.53307 34.4478 3.60933 34.4629 3.68634 34.4629H10.3366V39.4135C10.3365 39.4905 10.3517 39.5668 10.3812 39.6379C10.4106 39.7091 10.4538 39.7737 10.5083 39.8282C10.5627 39.8826 10.6274 39.9258 10.6985 39.9553C10.7697 39.9848 10.846 39.9999 10.923 39.9999H31.3001C31.3049 39.9999 31.3095 39.9994 31.3142 39.9992C31.3285 39.9988 31.3429 39.9985 31.3572 39.9971C31.3684 39.996 31.3794 39.994 31.3904 39.9922C31.3982 39.991 31.406 39.9902 31.4138 39.9887C31.4256 39.9863 31.4371 39.983 31.4486 39.9801C31.4555 39.9783 31.4625 39.977 31.4692 39.9749C31.4803 39.9716 31.4913 39.9673 31.5022 39.9632C31.5092 39.9606 31.5162 39.9585 31.5231 39.9557C31.5336 39.9513 31.5438 39.9462 31.554 39.9412C31.561 39.9379 31.5681 39.935 31.575 39.9314C31.5858 39.9256 31.5963 39.919 31.6067 39.9125C31.6125 39.9089 31.6185 39.9058 31.6242 39.902C31.6384 39.8927 31.652 39.8823 31.6653 39.8717C31.6671 39.8703 31.6689 39.8692 31.6707 39.8677C31.6858 39.8554 31.7004 39.8423 31.7144 39.8283L36.7281 34.8145C36.7464 34.7959 36.7635 34.776 36.7792 34.7551C36.7986 34.7299 36.8159 34.7032 36.831 34.6752L36.8325 34.6721C36.8467 34.6449 36.8586 34.6166 36.8683 34.5874C36.8763 34.5635 36.8835 34.5392 36.8885 34.5143L36.8885 34.5138C36.8945 34.4828 36.8979 34.4513 36.8988 34.4197C36.899 34.4131 36.8997 34.4066 36.8997 34.3999V13.7739C36.8997 13.6184 36.8379 13.4692 36.728 13.3592C36.618 13.2493 36.4688 13.1875 36.3133 13.1875C36.1578 13.1875 36.0086 13.2493 35.8987 13.3592C35.7887 13.4692 35.7269 13.6184 35.7269 13.7739V33.8134H31.2999C31.1444 33.8134 30.9952 33.8752 30.8852 33.9851C30.7753 34.0951 30.7135 34.2443 30.7135 34.3998V38.827H11.5092V34.4628H24.0633C24.0681 34.4628 24.0727 34.4622 24.0774 34.4621C24.0918 34.4618 24.1061 34.4614 24.1204 34.46C24.1316 34.4589 24.1426 34.4569 24.1536 34.4551C24.1614 34.4539 24.1693 34.4531 24.177 34.4516C24.1888 34.4492 24.2003 34.4459 24.2118 34.4429C24.2186 34.4411 24.2257 34.4398 24.2324 34.4377C24.2436 34.4344 24.2545 34.4301 24.2654 34.426C24.2724 34.4234 24.2794 34.4213 24.2863 34.4185C24.2968 34.4142 24.307 34.409 24.3172 34.4041C24.3242 34.4007 24.3313 34.3978 24.3382 34.3942C24.349 34.3884 24.3595 34.3818 24.37 34.3753C24.3757 34.3717 24.3818 34.3686 24.3875 34.3649C24.4016 34.3555 24.4152 34.3452 24.4286 34.3345C24.4303 34.3331 24.4322 34.332 24.4339 34.3306C24.449 34.3183 24.4636 34.3051 24.4776 34.2912L29.4913 29.2774C29.5096 29.2588 29.5267 29.2389 29.5425 29.218C29.5619 29.1929 29.5793 29.1662 29.5943 29.1381L29.5957 29.1353C29.6071 29.1137 29.6166 29.0912 29.6252 29.0682C29.6274 29.0623 29.6296 29.0564 29.6315 29.0504C29.6396 29.0265 29.6468 29.0022 29.6517 28.9772L29.6518 28.9767C29.6577 28.9457 29.6611 28.9141 29.662 28.8825C29.6622 28.8759 29.663 28.8694 29.663 28.8628V6.70991H35.7268V11.4282C35.727 11.5837 35.7888 11.7329 35.8989 11.8428C36.0089 11.9528 36.1581 12.0145 36.3136 12.0146ZM31.8864 34.9862H34.8979L31.8864 37.9977V34.9862ZM24.6497 32.4607V29.4492H27.6612L24.6497 32.4607Z" fill="#2D2D43"/>
<path d="M20.5494 9.6803C20.4016 9.53172 20.2258 9.41393 20.0322 9.33374C19.8386 9.25354 19.631 9.21254 19.4215 9.21311C19.2119 9.21259 19.0043 9.25361 18.8107 9.33382C18.6171 9.41402 18.4414 9.53181 18.2936 9.68038L14.8334 13.1405L13.6673 11.9744C13.5195 11.8258 13.3437 11.708 13.1501 11.6278C12.9565 11.5476 12.7489 11.5066 12.5394 11.5072C12.3298 11.5066 12.1222 11.5476 11.9286 11.6278C11.735 11.708 11.5592 11.8258 11.4115 11.9744C10.7896 12.5963 10.7896 13.6082 11.4115 14.2301L13.7056 16.5242C13.8534 16.6728 14.0291 16.7906 14.2227 16.8707C14.4163 16.9509 14.6239 16.9919 14.8334 16.9914C15.043 16.992 15.2506 16.9509 15.4442 16.8707C15.6378 16.7905 15.8136 16.6727 15.9613 16.5241L20.5493 11.9362C20.6979 11.7884 20.8157 11.6126 20.8959 11.419C20.9761 11.2254 21.0171 11.0178 21.0166 10.8083C21.0172 10.5987 20.9762 10.3911 20.896 10.1975C20.8158 10.0039 20.698 9.82807 20.5494 9.6803ZM19.7199 11.1067L15.1319 15.6948C15.0928 15.7341 15.0463 15.7653 14.995 15.7865C14.9438 15.8077 14.8889 15.8186 14.8334 15.8184C14.7216 15.8181 14.6144 15.7737 14.535 15.6948L12.2409 13.4008C12.1619 13.3215 12.1174 13.2142 12.1174 13.1022C12.1174 12.9903 12.1619 12.8829 12.2409 12.8037C12.28 12.7643 12.3265 12.7332 12.3778 12.712C12.429 12.6907 12.4839 12.6799 12.5394 12.6801C12.6521 12.6801 12.7581 12.7239 12.8378 12.8037L14.4187 14.3845C14.4731 14.439 14.5378 14.4822 14.6089 14.5117C14.6801 14.5411 14.7563 14.5563 14.8333 14.5563C14.9104 14.5563 14.9866 14.5411 15.0578 14.5117C15.1289 14.4822 15.1936 14.439 15.248 14.3845L19.123 10.5096C19.1621 10.4703 19.2086 10.4391 19.2598 10.4179C19.3111 10.3966 19.366 10.3858 19.4215 10.3859C19.5341 10.3859 19.6401 10.4298 19.7199 10.5096C19.7592 10.5487 19.7904 10.5952 19.8116 10.6465C19.8328 10.6977 19.8437 10.7527 19.8435 10.8081C19.8437 10.8636 19.8329 10.9186 19.8117 10.9698C19.7905 11.0211 19.7593 11.0676 19.7199 11.1067Z" fill="#2D2D43"/>
<path d="M15.9804 4.37125C14.1808 4.37125 12.4568 4.92046 10.9947 5.95953C10.8706 6.05067 10.7873 6.18693 10.7628 6.33892C10.7384 6.49092 10.7746 6.64644 10.8638 6.77193C10.953 6.89742 11.0879 6.98281 11.2395 7.00968C11.3911 7.03655 11.5472 7.00274 11.674 6.91554C12.9365 6.01828 14.4257 5.54406 15.9804 5.54406C20.0844 5.54406 23.4233 8.88297 23.4233 12.9869C23.4233 17.0909 20.0844 20.4299 15.9804 20.4299C11.8764 20.4299 8.53748 17.091 8.53748 12.9869C8.53748 11.3187 9.0767 9.74211 10.0969 8.42765C10.1888 8.30455 10.2288 8.15025 10.2082 7.99796C10.1876 7.84567 10.1081 7.70754 9.98668 7.61331C9.86528 7.51907 9.71175 7.47625 9.5591 7.49405C9.40646 7.51186 9.2669 7.58887 9.17045 7.70851C7.98912 9.23054 7.36475 11.0559 7.36475 12.9869C7.36475 17.7377 11.2297 21.6027 15.9804 21.6027C20.7312 21.6027 24.5962 17.7377 24.5962 12.9869C24.5962 8.23617 20.7312 4.37125 15.9804 4.37125Z" fill="#2D2D43"/>
</svg>
